<svg xmlns="http://www.w3.org/2000/svg" width="29" height="29" viewBox="0 0 29 29"><defs><style>.a,.b{fill:none;stroke-linecap:round;stroke-linejoin:round;}.a{stroke:#0869b6;}.b{stroke:#0a83e3;}</style></defs><g transform="translate(-47.5 -47.5)"><line class="a" x2="10.769" transform="translate(56.615 76)"/><line class="a" y1="8.615" transform="translate(62 67.385)"/><path class="b" d="M145.193,59.846c0-3.408-.005-9.062-.008-10.769A1.077,1.077,0,0,0,144.108,48l-15.063.018a1.077,1.077,0,0,0-1.077,1.074c0,2.058-.009,8.694-.009,10.755,0,4.327,5.587,7.538,8.615,7.538S145.193,64.173,145.193,59.846Z" transform="translate(-74.578 0)"/><path class="b" d="M53.385,96H48v1.077c0,3.717,2.258,7.538,5.385,7.538" transform="translate(0 -44.769)"/><path class="b" d="M384,96h5.385v1.077c0,3.717-2.258,7.538-5.385,7.538" transform="translate(-313.385 -44.769)"/></g></svg>