<svg xmlns="http://www.w3.org/2000/svg" width="28" height="28" viewBox="0 0 28 28"><defs><style>.a,.d{fill:none;}.a{stroke:#0a83e3;}.b{fill:#0a83e3;}.c{stroke:none;}</style></defs><g transform="translate(-94 -924)"><g class="a" transform="translate(94 926)"><rect class="c" width="28" height="26" rx="4"/><rect class="d" x="0.5" y="0.5" width="27" height="25" rx="3.5"/></g><circle class="b" cx="1" cy="1" r="1" transform="translate(100 934)"/><circle class="b" cx="1" cy="1" r="1" transform="translate(105 934)"/><circle class="b" cx="1" cy="1" r="1" transform="translate(110 934)"/><circle class="b" cx="1" cy="1" r="1" transform="translate(115 934)"/><g transform="translate(0 5)"><circle class="b" cx="1" cy="1" r="1" transform="translate(100 934)"/><circle class="b" cx="1" cy="1" r="1" transform="translate(105 934)"/><circle class="b" cx="1" cy="1" r="1" transform="translate(110 934)"/><circle class="b" cx="1" cy="1" r="1" transform="translate(115 934)"/></g><g transform="translate(0 10)"><circle class="b" cx="1" cy="1" r="1" transform="translate(100 934)"/><circle class="b" cx="1" cy="1" r="1" transform="translate(105 934)"/><circle class="b" cx="1" cy="1" r="1" transform="translate(110 934)"/></g><g transform="translate(-29)"><rect class="b" width="1" height="7" rx="0.5" transform="translate(129 924)"/><rect class="b" width="1" height="7" rx="0.5" transform="translate(137 924)"/><rect class="b" width="1" height="7" rx="0.5" transform="translate(145 924)"/></g></g></svg>