<svg xmlns="http://www.w3.org/2000/svg" width="33.809" height="28" viewBox="0 0 33.809 28"><defs><style>.a{fill:#0a83e3;}</style></defs><g transform="translate(-4.07 -8.881)"><g transform="translate(4.07 8.881)"><path class="a" d="M10.728,9.643H5.886A1.816,1.816,0,0,0,4.07,11.459V35.066a1.816,1.816,0,0,0,1.816,1.816h4.842a1.816,1.816,0,0,0,1.816-1.816V11.459a1.816,1.816,0,0,0-1.816-1.816ZM5.281,16.3V14.486h6.053V16.3Zm6.053,1.211v11.5H5.281v-11.5ZM5.281,30.223h6.053v1.816H5.281Zm.605-19.369h4.842a.605.605,0,0,1,.605.605v1.816H5.281V11.459a.605.605,0,0,1,.605-.605Zm4.842,24.817H5.886a.605.605,0,0,1-.605-.605V33.25h6.053v1.816A.605.605,0,0,1,10.728,35.671ZM21.018,9.643H16.176a1.816,1.816,0,0,0-1.816,1.816V35.066a1.816,1.816,0,0,0,1.816,1.816h4.842a1.816,1.816,0,0,0,1.816-1.816V11.459A1.816,1.816,0,0,0,21.018,9.643ZM15.571,16.3V14.486h6.053V16.3Zm6.053,1.211v11.5H15.571v-11.5ZM15.571,30.223h6.053v1.816H15.571Zm.605-19.369h4.842a.605.605,0,0,1,.605.605v1.816H15.571V11.459A.605.605,0,0,1,16.176,10.854Zm4.842,24.817H16.176a.605.605,0,0,1-.605-.605V33.25h6.053v1.816A.605.605,0,0,1,21.018,35.671ZM37.8,32.8l-.684-2.318h0L32.64,15.4h0l-1.556-5.236a1.816,1.816,0,0,0-2.24-1.211l-4.661,1.374a1.816,1.816,0,0,0-1.211,2.258l1.55,5.218h0l3.632,12.185h0l.86,2.9h0L29.7,35.2a1.813,1.813,0,0,0,1.737,1.3,1.7,1.7,0,0,0,.521-.079L36.6,35.053h0A1.816,1.816,0,0,0,37.8,32.8ZM29.45,30.223l5.8-1.719.514,1.737-5.787,1.713Zm-3.6-12.191,5.8-1.719L34.9,27.342l-5.8,1.725Zm-.866-2.9,5.8-1.725.514,1.743-5.8,1.731ZM24.529,11.5l4.643-1.374a.616.616,0,0,1,.781.406l.514,1.743-5.829,1.7-.514-1.737a.605.605,0,0,1,.406-.757ZM36.235,33.9h0l-4.643,1.38a.6.6,0,0,1-.751-.412l-.514-1.737L36.108,31.4l.533,1.761A.605.605,0,0,1,36.235,33.9Z" transform="translate(-4.07 -8.881)"/></g></g></svg>