<svg xmlns="http://www.w3.org/2000/svg" width="29.13" height="29" viewBox="0 0 29.13 29"><defs><style>.a{fill:none;stroke:#0a83e3;stroke-linecap:round;stroke-miterlimit:10;}</style></defs><g transform="translate(-47.369 -47.5)"><path class="a" d="M137.482,66.348a1.233,1.233,0,0,1,.222-.821,2.265,2.265,0,0,1,.141-.209A10.9,10.9,0,0,0,139.7,59.24,11.45,11.45,0,0,0,128.012,48a11.611,11.611,0,0,0-11.462,8.945,10.816,10.816,0,0,0-.249,2.3,11.418,11.418,0,0,0,11.51,11.382,13.861,13.861,0,0,0,3.177-.518c.761-.209,1.514-.485,1.71-.559a1.78,1.78,0,0,1,.626-.114,1.75,1.75,0,0,1,.68.135l3.816,1.353a.91.91,0,0,0,.262.067.538.538,0,0,0,.538-.538.866.866,0,0,0-.034-.182Z" transform="translate(-63.704 0)"/><path class="a" d="M49.242,232a9.842,9.842,0,0,0,.43,10.276c.155.235.243.417.216.538s-.8,4.164-.8,4.164a.538.538,0,0,0,.182.517.55.55,0,0,0,.347.12.489.489,0,0,0,.2-.04l3.783-1.481a1.057,1.057,0,0,1,.808.013,11.4,11.4,0,0,0,4.094.808,10.716,10.716,0,0,0,5.388-1.446" transform="translate(0 -171.615)"/></g></svg>