<svg xmlns="http://www.w3.org/2000/svg" width="31.26" height="28" viewBox="0 0 31.26 28"><defs><style>.a{fill:#0a83e3;}</style></defs><g transform="translate(-2.499 -2.823)"><path class="a" d="M17.195,21.224a4.362,4.362,0,1,0-4.362-4.362A4.366,4.366,0,0,0,17.195,21.224Zm0-7.633a3.271,3.271,0,1,1-3.271,3.271A3.276,3.276,0,0,1,17.195,13.59Z" transform="translate(0.935 0.875)"/><path class="a" d="M21.833,18.771A3.271,3.271,0,1,0,25.1,15.5,3.276,3.276,0,0,0,21.833,18.771Zm5.452,0A2.181,2.181,0,1,1,25.1,16.59,2.182,2.182,0,0,1,27.285,18.771Z" transform="translate(1.749 1.147)"/><path class="a" d="M33.444,26.063a7.945,7.945,0,0,0-9.8-2.783,9.418,9.418,0,0,0-11.02,0A7.947,7.947,0,0,0,2.81,26.068,1.826,1.826,0,0,0,2.5,27.085V27.5a1.638,1.638,0,0,0,1.636,1.636H32.124A1.638,1.638,0,0,0,33.759,27.5v-.413A1.837,1.837,0,0,0,33.444,26.063Zm-23.392,1.98H4.136a.546.546,0,0,1-.545-.545v-.412a.723.723,0,0,1,.122-.4,6.878,6.878,0,0,1,7.954-2.616,9.578,9.578,0,0,0-1.361,1.56,2.069,2.069,0,0,0-.354,1.158V27.5A1.618,1.618,0,0,0,10.053,28.043ZM25.218,27.5a.546.546,0,0,1-.545.545H11.587a.546.546,0,0,1-.545-.545v-.713a.972.972,0,0,1,.166-.543,8.389,8.389,0,0,1,13.834-.017,1,1,0,0,1,.177.561Zm7.452,0a.546.546,0,0,1-.545.545H26.209a1.617,1.617,0,0,0,.1-.545v-.713a2.1,2.1,0,0,0-.365-1.173A9.417,9.417,0,0,0,24.6,24.067a6.877,6.877,0,0,1,7.948,2.609.726.726,0,0,1,.126.408Z" transform="translate(0 1.69)"/><path class="a" d="M9.1,22.043a3.271,3.271,0,1,0-3.271-3.271A3.275,3.275,0,0,0,9.1,22.043Zm0-5.452a2.181,2.181,0,1,1-2.181,2.181A2.182,2.182,0,0,1,9.1,16.59Z" transform="translate(0.302 1.147)"/><path class="a" d="M18.545,12.83a.528.528,0,0,0,.172-.028l2.476-.827a7.019,7.019,0,0,0,3,.662c3.306,0,6-2.2,6-4.907s-2.691-4.907-6-4.907-6,2.2-6,4.907a4.1,4.1,0,0,0,.593,2.087l-.758,2.3a.547.547,0,0,0,.518.716Zm5.645-8.916c2.705,0,4.907,1.712,4.907,3.817s-2.2,3.816-4.907,3.816a5.885,5.885,0,0,1-2.7-.643.549.549,0,0,0-.251-.061.524.524,0,0,0-.172.028l-1.659.553.5-1.506a.543.543,0,0,0-.063-.47,3.111,3.111,0,0,1-.555-1.716C19.284,5.627,21.484,3.915,24.191,3.915Z" transform="translate(1.402)"/></g></svg>