<svg xmlns="http://www.w3.org/2000/svg" width="31.569" height="29" viewBox="0 0 31.569 29"><defs><style>.a{fill:none;stroke:#0a83e3;stroke-linecap:round;stroke-linejoin:round;}</style></defs><g transform="translate(-31.293 -47.517)"><path class="a" d="M80,212v15.885a1.077,1.077,0,0,0,1.077,1.077h6.462v-9.154a1.615,1.615,0,0,1,1.615-1.615h5.385a1.615,1.615,0,0,1,1.615,1.615v9.154h6.462a1.077,1.077,0,0,0,1.077-1.077V212" transform="translate(-44.769 -152.945)"/><path class="a" d="M62.155,62.017,47.811,48.286a1.136,1.136,0,0,0-1.466,0L32,62.017" transform="translate(0 0)"/><path class="a" d="M355.231,71.741V64H352v4.644" transform="translate(-298.461 -14.907)"/></g></svg>