<svg xmlns="http://www.w3.org/2000/svg" width="52.413" height="52.413" viewBox="0 0 52.413 52.413"><defs><style>.a{fill:#2d3436;}</style></defs><g transform="translate(7.678)"><path class="a" d="M81.142,0A6.225,6.225,0,0,0,75,6.245a6.142,6.142,0,0,0,12.284,0A6.226,6.226,0,0,0,81.142,0Zm0,9.316a3.075,3.075,0,0,1-3.071-3.071,3.073,3.073,0,1,1,6.142,0A3.075,3.075,0,0,1,81.142,9.316Z" transform="translate(-75)"/></g><path class="a" d="M47.806,0H26.1A4.612,4.612,0,0,0,21.5,4.607V15.086l-1.35-1.349a4.576,4.576,0,0,0-3.257-1.35H7.678A7.686,7.686,0,0,0,0,20.064v9.213a4.607,4.607,0,0,0,6.142,4.344V47.806a4.6,4.6,0,0,0,7.678,3.431A4.6,4.6,0,0,0,21.5,47.806V27.48a4.624,4.624,0,0,0,3.6-.224l5.17-2.585H47.806a4.612,4.612,0,0,0,4.607-4.607V4.607A4.612,4.612,0,0,0,47.806,0ZM29.862,21.438l-6.14,3.07a1.535,1.535,0,0,1-1.774-.287l-.9-.9A1.536,1.536,0,0,0,18.427,24.4s0,0,0,0v23.4a1.536,1.536,0,0,1-3.071,0V32.349a1.536,1.536,0,1,0-3.071,0V47.806a1.536,1.536,0,0,1-3.071,0V20.064a1.536,1.536,0,1,0-3.071,0v9.213a1.536,1.536,0,0,1-3.071,0c0-1.158,0-8.267,0-9.213a4.612,4.612,0,0,1,4.607-4.607h9.213a1.525,1.525,0,0,1,1.086.45l4.577,4.577a1.536,1.536,0,0,0,1.772.288l4.163-2.082a1.536,1.536,0,0,1,1.373,2.748Zm19.48-1.374A1.537,1.537,0,0,1,47.806,21.6H33.518c.009-.026.02-.052.028-.079a4.589,4.589,0,0,0,.2-2.027l8.4-4.2a1.536,1.536,0,0,0-1.373-2.747l-8.4,4.2a4.6,4.6,0,0,0-5.261-.8l-2.546,1.273V4.607A1.537,1.537,0,0,1,26.1,3.071h21.7a1.537,1.537,0,0,1,1.536,1.536Z"/></svg>