<svg xmlns="http://www.w3.org/2000/svg" width="24.759" height="29" viewBox="0 0 24.759 29"><defs><style>.a{fill:none;stroke:#0a83e3;stroke-linecap:round;stroke-linejoin:round;}</style></defs><g transform="translate(-79.315 -47.5)"><path class="a" d="M103.251,68.423c-1.728-2.115-2.949-3.192-2.949-9.025,0-5.341-2.727-7.244-4.972-8.168a1.2,1.2,0,0,1-.67-.71,3,3,0,0,0-5.926,0,1.188,1.188,0,0,1-.67.709c-2.247.925-4.972,2.822-4.972,8.168,0,5.832-1.224,6.909-2.952,9.025A1.357,1.357,0,0,0,81.3,70.615h20.79A1.358,1.358,0,0,0,103.251,68.423Z" transform="translate(0 0)"/><path class="a" d="M200.615,384v1.077a4.308,4.308,0,0,1-8.615,0V384" transform="translate(-104.612 -313.385)"/></g></svg>