<svg xmlns="http://www.w3.org/2000/svg" width="28.296" height="29" viewBox="0 0 28.296 29"><defs><style>.a{fill:none;stroke:#0a83e3;stroke-linecap:round;stroke-linejoin:round;}</style></defs><path class="a" d="M62.005,51.833a4.187,4.187,0,1,0,3.755,3.755A4.187,4.187,0,0,0,62.005,51.833ZM72.086,56a10.1,10.1,0,0,1-.1,1.36l2.958,2.32a.707.707,0,0,1,.16.9l-2.8,4.841a.707.707,0,0,1-.86.3l-2.937-1.183a1.054,1.054,0,0,0-.992.114,10.762,10.762,0,0,1-1.409.82,1.043,1.043,0,0,0-.577.794L65.09,69.4a.725.725,0,0,1-.7.6H58.8a.727.727,0,0,1-.7-.58l-.44-3.128a1.051,1.051,0,0,0-.589-.8,10.159,10.159,0,0,1-1.4-.822,1.047,1.047,0,0,0-.989-.112L51.739,65.74a.707.707,0,0,1-.86-.3l-2.8-4.841a.707.707,0,0,1,.16-.9l2.5-1.963a1.05,1.05,0,0,0,.393-.921c-.024-.273-.038-.545-.038-.818s.014-.541.038-.808a1.047,1.047,0,0,0-.4-.912l-2.5-1.963a.707.707,0,0,1-.155-.895l2.8-4.841a.707.707,0,0,1,.86-.3l2.937,1.183a1.054,1.054,0,0,0,.992-.114,10.76,10.76,0,0,1,1.409-.82,1.043,1.043,0,0,0,.577-.794L58.1,42.6a.725.725,0,0,1,.7-.6h5.6a.727.727,0,0,1,.7.58l.44,3.128a1.051,1.051,0,0,0,.589.8,10.159,10.159,0,0,1,1.4.822,1.047,1.047,0,0,0,.989.112l2.937-1.182a.707.707,0,0,1,.86.3l2.8,4.841a.707.707,0,0,1-.16.9l-2.5,1.963a1.05,1.05,0,0,0-.4.921C72.072,55.455,72.086,55.727,72.086,56Z" transform="translate(-47.446 -41.5)"/></svg>