<svg xmlns="http://www.w3.org/2000/svg" width="32.478" height="28" viewBox="0 0 32.478 28"><defs><style>.a{fill:#0a83e3;}</style></defs><g transform="translate(-3 -11.997)"><rect class="a" width="1.12" height="1.12" transform="translate(9.16 22.078)"/><rect class="a" width="1.12" height="1.12" transform="translate(12.52 22.078)"/><rect class="a" width="1.12" height="1.12" transform="translate(24.839 22.078)"/><rect class="a" width="1.12" height="1.12" transform="translate(28.199 22.078)"/><path class="a" d="M33.244,30.008a3.335,3.335,0,0,0,.42-5.5,2.278,2.278,0,0,0,.134-.75,2.24,2.24,0,0,0-1.68-2.167V15.947l1.12-.37v2.581h1.12V14.8a.568.568,0,0,0-.381-.532l-6.72-2.24a.56.56,0,0,0-.358,0l-6.72,2.24a.56.56,0,0,0,0,1.064l1.859.616v5.645a2.24,2.24,0,0,0-1.68,2.167,2.278,2.278,0,0,0,.134.75,3.335,3.335,0,0,0,.42,5.5,5,5,0,0,0-1.674,1.876,5.052,5.052,0,0,0-2.755-2.441l-2.845-1.036V27.073a4.513,4.513,0,0,0,2.094-2.755h.146a1.68,1.68,0,1,0,0-3.36V16.137l1.68-.56v2.581h1.12V14.8a.568.568,0,0,0-.381-.532l-6.72-2.24a.56.56,0,0,0-.358,0L4.5,14.267a.56.56,0,0,0,0,1.064l2.419.806v4.821a1.68,1.68,0,1,0,0,3.36h.146A4.513,4.513,0,0,0,9.16,27.073v1.333L6.315,29.442A5.045,5.045,0,0,0,3,34.174v5.264a.56.56,0,0,0,.56.56H34.918a.56.56,0,0,0,.56-.56V34.174a5.04,5.04,0,0,0-2.234-4.166ZM6.92,23.2a.56.56,0,1,1,0-1.12Zm7.235,6.585-.6.93L12.531,29.7l.582-.291Zm.6-9.4a1.125,1.125,0,0,1-.9-.829l-.067-.274h.963Zm0-2.223H8.04V16.507l3.181,1.064a.587.587,0,0,0,.358,0l3.181-1.064Zm-2.341,1.12A1.686,1.686,0,0,1,10.84,20.4H8.04v-1.12Zm4.021,3.36a.56.56,0,0,1-.56.56v-1.12A.56.56,0,0,1,16.439,22.638ZM6.449,14.8l4.95-1.652L16.35,14.8,11.4,16.451Zm1.59,8.4v-1.68h2.8a2.807,2.807,0,0,0,2.2-1.07,2.234,2.234,0,0,0,1.719,1.058V23.2a3.36,3.36,0,1,1-6.72,0Zm4.48,4.334v.918l-.694.347h-.851l-.694-.347v-.918A4.38,4.38,0,0,0,12.52,27.532ZM9.686,29.408l.582.291L9.249,30.713l-.6-.93Zm1.154,9.469H4.12v-4.7A3.937,3.937,0,0,1,6.7,30.489l.862-.314,1.126,1.73a.568.568,0,0,0,.414.246.19.19,0,0,0,.056.006.564.564,0,0,0,.4-.162l.028-.034,1.254,2.033ZM10.4,31.15l1-1,1,1-1,1.618Zm8.276,7.728H11.96V33.995l1.254-2.033.028.034a.564.564,0,0,0,.4.162.19.19,0,0,0,.056-.006.568.568,0,0,0,.414-.246l1.126-1.73.862.314a3.937,3.937,0,0,1,2.581,3.685Zm14-15.119a1.04,1.04,0,0,1-.028.19,3.612,3.612,0,0,0-.42-.123l-.224,1.1a2.235,2.235,0,0,1-.151,4.407l-2.537-.924V27.073a4.483,4.483,0,0,0,2.24-3.875v-.56A1.123,1.123,0,0,1,32.678,23.758Zm-4.11,5.566.392.14a4.129,4.129,0,0,1-3.763,0l.392-.14a.555.555,0,0,0,.37-.526V27.532a4.38,4.38,0,0,0,2.24,0V28.8A.555.555,0,0,0,28.568,29.324Zm-1.49-2.766a3.36,3.36,0,0,1-3.36-3.36v-1.68h1.6A2.793,2.793,0,0,0,27.65,20.27l.078-.112.538.543a2.8,2.8,0,0,0,1.982.818h.19V23.2A3.36,3.36,0,0,1,27.079,26.558Zm-3.92-8.4V16.322L26.9,17.571a.587.587,0,0,0,.358,0L31,16.322v1.837ZM31,19.278V20.4h-.75a1.655,1.655,0,0,1-1.187-.493l-.633-.627Zm-4.032,0-.246.37a1.683,1.683,0,0,1-1.4.75H23.159v-1.12Zm.112-6.132,4.95,1.652-4.95,1.652L22.129,14.8Zm-6.72,13.971a2.247,2.247,0,0,1,1.786-2.2l-.224-1.1a3.232,3.232,0,0,0-.414.123,1.04,1.04,0,0,1-.028-.19,1.123,1.123,0,0,1,1.12-1.12v.56a4.483,4.483,0,0,0,2.24,3.875v1.333L22.3,29.33A2.244,2.244,0,0,1,20.359,27.118Zm6.16,11.759H19.8v-4.7a3.937,3.937,0,0,1,2.581-3.685l1.17-.426,2.968,3.959ZM25.505,30.8a5.381,5.381,0,0,0,3.147,0l-1.574,2.1Zm8.853,8.075h-6.72V34.023l2.968-3.959,1.17.426a3.937,3.937,0,0,1,2.581,3.685Z" transform="translate(0 0)"/></g></svg>