<svg xmlns="http://www.w3.org/2000/svg" width="37.032" height="28" viewBox="0 0 37.032 28"><defs><style>.a,.b{fill:#fff;}.a{stroke:#0a83e3;}.c,.e{stroke:none;}.d{fill:none;}.e{fill:#0a83e3;}</style></defs><g transform="translate(-20 -525)"><g class="a" transform="translate(22.71 527.71)"><rect class="c" width="34.323" height="25.29" rx="4"/><rect class="d" x="0.5" y="0.5" width="33.323" height="24.29" rx="3.5"/></g><g class="a" transform="translate(20 525)"><rect class="c" width="34.323" height="25.29" rx="4"/><rect class="d" x="0.5" y="0.5" width="33.323" height="24.29" rx="3.5"/></g><g class="b" transform="translate(46 530) rotate(90)"><path class="c" d="M 12.55363941192627 13.50000095367432 L 3.446359157562256 13.50000095367432 C 2.905468940734863 13.50000095367432 2.42047905921936 13.22071075439453 2.148988962173462 12.75289058685303 C 1.877508997917175 12.285080909729 1.875639081001282 11.7254114151001 2.143989086151123 11.25579071044922 L 6.697628974914551 3.28692102432251 C 6.968059062957764 2.813670873641968 7.454928874969482 2.531131029129028 7.999999046325684 2.531131029129028 C 8.545068740844727 2.531131029129028 9.031939506530762 2.813670873641968 9.302369117736816 3.28692102432251 L 13.8560094833374 11.25579071044922 C 14.12435913085938 11.7254114151001 14.1224889755249 12.285080909729 13.85100936889648 12.75289058685303 C 13.57951927185059 13.22071075439453 13.0945291519165 13.50000095367432 12.55363941192627 13.50000095367432 Z"/><path class="e" d="M 7.999999046325684 3.031130790710449 C 7.825509071350098 3.031130790710449 7.391609191894531 3.080230712890625 7.131749153137207 3.534991264343262 L 2.578108787536621 11.50386047363281 C 2.320239067077637 11.95513153076172 2.494539260864258 12.35217094421387 2.581449508666992 12.50193119049072 C 2.66835880279541 12.6516809463501 2.926609039306641 13.00000095367432 3.446358680725098 13.00000095367432 L 12.55363845825195 13.00000095367432 C 13.07338905334473 13.00000095367432 13.33163928985596 12.6516809463501 13.41854858398438 12.50193119049072 C 13.50545883178711 12.35217094421387 13.67975902557373 11.95513153076172 13.42188930511475 11.50386047363281 L 8.86824893951416 3.534991264343262 C 8.608379364013672 3.080230712890625 8.17448902130127 3.031130790710449 7.999999046325684 3.031130790710449 M 7.999999046325684 2.031128883361816 C 8.676296234130859 2.031128883361816 9.352594375610352 2.367035865783691 9.736488342285156 3.038850784301758 L 14.29012870788574 11.00772094726562 C 15.0520191192627 12.34103107452393 14.08928871154785 14.00000095367432 12.55363845825195 14.00000095367432 L 3.446358680725098 14.00000095367432 C 1.910709381103516 14.00000095367432 0.9479789733886719 12.34103107452393 1.709869384765625 11.00772094726562 L 6.263508796691895 3.038850784301758 C 6.647403717041016 2.367035865783691 7.323701858520508 2.031128883361816 7.999999046325684 2.031128883361816 Z"/></g></g></svg>